# AST/ASF file generated using VICON BodyLanguage
# -----------------------------------------------
:version 1.10
:name VICON
:units
  mass 1.0
  length 0.45
  angle deg
:documentation
   .ast/.asf automatically generated from VICON data using
   VICON BodyBuilder and BodyLanguage model FoxedUp or BRILLIANT.MOD
:root
   order TX TY TZ RX RY RZ
   axis XYZ
   position 0 0 0  
   orientation 0 0 0 
:bonedata
  begin
     id 1 
     name lhipjoint
     direction 0.584852 -0.759097 0.285867 
     length 2.43633 
     axis 0 0 0  XYZ
  end
  begin
     id 2 
     name lfemur
     direction 0.34202 -0.939693 0  
     length 7.14704  
     axis 0 0 20  XYZ
    dof rx ry rz
    limits (-160.0 20.0)
           (-70.0 70.0)
           (-60.0 70.0)
  end
  begin
     id 3 
     name ltibia
     direction 0.342022 -0.939692 0   
     length 7.68483   
     axis 0 0 20   XYZ
    dof rx
    limits (-10.0 170.0)
  end
  begin
     id 4 
     name lfoot
     direction 0.0999605 -0.274639 0.956337   
     length 2.40452   
     axis -90 7.62852e-016 20   XYZ
    dof rx rz
    limits (-45.0 90.0)
           (-70.0 20.0)
  end
  begin
     id 5 
     name ltoes
     direction 1.53468e-011 -4.21881e-011 1   
     length 1.19837   
     axis -90 7.62852e-016 20   XYZ
    dof rx
    limits (-90.0 20.0)
  end
  begin
     id 6 
     name rhipjoint
     direction -0.569886 -0.769002 0.289597   
     length 2.40495  
     axis 0 0 0  XYZ 
  end
  begin
     id 7 
     name rfemur
     direction -0.34202 -0.939693 0   
     length 7.45086   
     axis 0 0 -20   XYZ
    dof rx ry rz
    limits (-160.0 20.0)
           (-70.0 70.0)
           (-70.0 60.0)
  end
  begin
     id 8 
     name rtibia
     direction -0.34202 -0.939693 0   
     length 7.76831   
     axis 0 0 -20   XYZ
    dof rx
    limits (-10.0 170.0)
 end
 begin
     id 9 
     name rfoot
     direction -0.0798572 -0.219406 0.97236   
     length 2.35911  
     axis -90 -7.62852e-016 -20   XYZ
    dof rx rz
    limits (-45.0 90.0)
           (-20.0 70.0)
  end
  begin
     id 10 
     name rtoes
     direction -1.53469e-011 -4.21728e-011 1   
     length 1.18261   
     axis -90 -7.62852e-016 -20   XYZ
    dof rx
    limits (-90.0 20.0)
  end
  begin
     id 11 
     name lowerback
     direction 0.0242088 0.999437 0.0232389   
     length 2.1561   
     axis 0 0 0   XYZ
    dof rx ry rz
    limits (-20.0 45.0)
           (-30.0 30.0)
           (-30.0 30.0)
  end
  begin
     id 12 
     name upperback
     direction -0.0356893 0.999013 -0.0264323   
     length 2.14431   
     axis 0 0 0   XYZ
    dof rx ry rz
    limits (-20.0 45.0)
           (-30.0 30.0)
           (-30.0 30.0)
  end
  begin
     id 13 
     name thorax
     direction -0.0472163 0.998194 -0.0371284   
     length 2.16169   
     axis 0 0 0   XYZ
    dof rx ry rz
    limits (-20.0 45.0)
           (-30.0 30.0)
           (-30.0 30.0)
  end
  begin
     id 14 
     name lowerneck
     direction 0.00863244 0.999921 0.00911972   
     length 1.58651   
     axis 0 0 0   XYZ
    dof rx ry rz
    limits (-20.0 45.0)
           (-30.0 30.0)
           (-30.0 30.0)
  end
  begin
     id 15 
     name upperneck
     direction 0.149523 0.979068 -0.138086   
     length 1.57486   
     axis 0 0 0   XYZ
    dof rx ry rz
    limits (-20.0 45.0)
           (-30.0 30.0)
           (-30.0 30.0)
  end
  begin
     id 16
     name head
     direction 0.0445219 0.997708 -0.0509576  
     length 1.6019  
     axis 0 0 0   XYZ
    dof rx ry rz
    limits (-20.0 45.0)
           (-30.0 30.0)
           (-30.0 30.0)
  end
  begin
     id 17 
     name lclavicle
     direction 0.911271 0.381667 -0.154644  
     length 3.80848  
     axis 0 0 0   XYZ
    dof ry rz
    limits (-20.0 10.0)
           (0.0 20.0)
  end
  begin
     id 18 
     name lhumerus
     direction 1 -4.49003e-011 2.1308e-027   
     length 5.19069   
     axis 180 -30 -90   XYZ
    dof rx ry rz
    limits (-60.0 90.0)
           (-90.0 90.0)
           (-90.0 90.0)
  end
  begin
     id 19
     name lradius
     direction 1 -4.48914e-011 4.01554e-027   
     length 3.30016   
     axis 180 -30 -90   XYZ
    dof rx
    limits (-10.0 170.0)
  end
  begin
     id 20
     name lwrist
     direction 1 -4.49003e-011 1.1934e-026   
     length 1.65008   
     axis -8.46377e-015 90 90   XYZ
    dof ry
    limits (-180.0 0.0)
 end
  begin
     id 21 
     name lhand
     direction 1 -4.49034e-011 2.38659e-026   
     length 0.707698   
     axis -1.52313e-014 90 90   XYZ
    dof rx rz
    limits (-90.0 90.0)
           (-45.0 45.0)
  end
  begin
     id 22 
     name lfingers
     direction 1 -4.48691e-011 4.77775e-026   
     length 0.570564   
     axis -3.04623e-014 90 90   XYZ
    dof rx
    limits (0.0 90.0)
  end
  begin
     id 23
     name lthumb
     direction 0.707107 -6.34832e-011 0.707107   
     length 0.819219   
     axis -90 45 -1.62303e-014   XYZ
    dof rx rz
    limits (-45.0 45.0)
           (-45.0 45.0)
  end
  begin
     id 24 
     name rclavicle
     direction -0.815579 0.573708 -0.0754329   
     length 3.54371  
     axis 0 0 0   XYZ 
    dof ry rz
    limits (-10.0 20.0)
           (-20.0 0.0)
  end
  begin
     id 25 
     name rhumerus
     direction -1 -4.48956e-011 3.05351e-028  
     length 5.23924   
     axis 180 30 90   XYZ
    dof rx ry rz
    limits (-90.0 60.0)
           (-90.0 90.0)
           (-90.0 90.0)
  end
  begin
     id 26 
     name rradius
     direction -1 -4.49013e-011 3.53849e-027   
     length 3.32953   
     axis 180 30 90   XYZ
    dof rx
    limits (-10.0 170.0)
  end
  begin
     id 27 
     name rwrist
     direction -1 -4.48901e-011 1.19374e-026   
     length 1.66477   
     axis -8.46377e-015 -90 -90   XYZ
    dof ry
    limits (-180.0 0.0)
  end
  begin
     id 28
     name rhand
     direction -1 -4.48877e-011 2.38764e-026   
     length 0.607414   
     axis -1.52313e-014 -90 -90   XYZ
    dof rx rz
    limits (-90.0 90.0)
           (-45.0 45.0)
  end
  begin
     id 29
     name rfingers
     direction -1 -4.48882e-011 4.77521e-026   
     length 0.489712   
     axis -3.04623e-014 -90 -90   XYZ
    dof rx
    limits (0.0 90.0)
  end
  begin
     id 30
     name rthumb
     direction -0.707107 -6.34974e-011 0.707107   
     length 0.703132   
     axis -90 -45 1.62303e-014   XYZ
    dof rx rz
    limits (-45.0 45.0)
           (-45.0 45.0)
  end
:hierarchy
  begin
    root lhipjoint rhipjoint lowerback
    lhipjoint lfemur
    lfemur ltibia
    ltibia lfoot
    lfoot ltoes
    rhipjoint rfemur
    rfemur rtibia
    rtibia rfoot
    rfoot rtoes
    lowerback upperback
    upperback thorax
    thorax lowerneck lclavicle rclavicle
    lowerneck upperneck
    upperneck head
    lclavicle lhumerus
    lhumerus lradius
    lradius lwrist
    lwrist lhand lthumb
    lhand lfingers
    rclavicle rhumerus
    rhumerus rradius
    rradius rwrist
    rwrist rhand rthumb
    rhand rfingers
  end

#!OML:ASF E:\VariousWalksJay\Project 1\Capture day 1\Session 1\Actor2.ASF
:FULLY-SPECIFIED
:DEGREES
487
root 6.06555 16.4817 21.6147 196.446 -70.338 -203.108
lowerback 10.8963 5.02091 -22.1846
upperback 9.51372 3.40294 -9.58938
thorax 3.69853 0.163174 1.36131
lowerneck -1.31935 4.76861 -1.58729
upperneck -0.371223 5.91179 21.0624
head -0.583284 2.64499 6.61987
rclavicle -9.54166e-015 6.67916e-014
rhumerus -63.1249 15.8462 -123.974
rradius 62.4749
rwrist 33.9962
rhand -6.63332 15.3713
rfingers 7.12502
rthumb 19.2234 -13.6986
lclavicle -9.54166e-015 6.67916e-014
lhumerus -77.3626 -33.3547 133.308
lradius 64.8377
lwrist 15.2321
lhand -5.94584 -5.38915
lfingers 7.12502
lthumb 19.8844 23.6136
rfemur -73.8941 -4.92713 7.63364
rtibia 25.6389
rfoot -25.4326 -15.6037
rtoes -23.8803
lfemur -5.0938 13.4595 -25.7551
ltibia 41.4169
lfoot -20.6477 12.6662
ltoes -21.318
488
root 6.03124 16.6137 21.5624 197.208 -70.3395 -203.938
lowerback 11.21 5.07553 -22.3993
upperback 9.60039 3.3481 -9.60121
thorax 3.63287 0.117158 1.4435
lowerneck -1.24026 4.76702 -1.41145
upperneck -0.378857 5.91049 20.9019
head -0.588566 2.64025 6.53663
rclavicle 6.36111e-015 -3.49861e-014
rhumerus -63.1536 15.719 -123.825
rradius 62.5787
rwrist 33.8085
rhand -6.59539 15.45
rfingers 7.12502
rthumb 19.2599 -13.6163
lclavicle 6.36111e-015 -3.49861e-014
lhumerus -77.4351 -33.5675 133.502
lradius 64.8908
lwrist 15.2983
lhand -5.99149 -5.36585
lfingers 7.12502
lthumb 19.8405 23.6415
rfemur -74.9625 -5.45312 6.67604
rtibia 23.997
rfoot -24.8742 -15.6214
rtoes -24.1472
lfemur -4.79328 12.8951 -26.4308
ltibia 40.6117
lfoot -18.7942 14.693
ltoes -20.9312
489
root 5.99894 16.7404 21.5067 198.044 -70.3375 -204.75
lowerback 11.5147 5.10104 -22.6145
upperback 9.6713 3.25784 -9.60272
thorax 3.56129 0.0565723 1.54278
lowerneck -1.20968 4.78528 -1.27904
upperneck -0.418429 5.94299 20.7253
head -0.599351 2.65396 6.45614
rclavicle 6.36111e-015 1.11319e-013
rhumerus -63.2143 15.6182 -123.653
rradius 62.6857
rwrist 33.7932
rhand -6.59582 15.6115
rfingers 7.12502
rthumb 19.2595 -13.4548
lclavicle 6.36111e-015 1.11319e-013
lhumerus -77.4458 -33.7396 133.638
lradius 64.9715
lwrist 15.3158
lhand -6.01805 -5.34376
lfingers 7.12502
lthumb 19.815 23.6662
rfemur -76.1022 -6.01531 5.86865
rtibia 22.3671
rfoot -24.2845 -15.5839
rtoes -24.4342
lfemur -4.84765 12.6833 -27.0869
ltibia 40.2379
lfoot -17.0234 16.535
ltoes -20.013
490
root 5.96823 16.859 21.448 199.091 -70.3116 -205.701
lowerback 11.8207 5.1182 -22.8606
upperback 9.72979 3.14829 -9.62065
thorax 3.4802 -0.0132237 1.64177
lowerneck -1.21314 4.81303 -1.14787
upperneck -0.506188 5.99633 20.5224
head -0.619585 2.67726 6.36776
rclavicle 2.8625e-014 8.5875e-014
rhumerus -63.2714 15.4965 -123.448
rradius 62.7975
rwrist 34.0435
rhand -6.60582 15.9514
rfingers 7.12502
rthumb 19.2499 -13.1159
lclavicle 2.8625e-014 8.5875e-014
lhumerus -77.4588 -33.903 133.757
lradius 65.0655
lwrist 15.2902
lhand -6.03756 -5.33501
lfingers 7.12502
lthumb 19.7962 23.6769
rfemur -77.3311 -6.63092 5.21091
rtibia 20.7842
rfoot -23.6597 -15.4901
rtoes -24.7243
lfemur -5.23864 12.8412 -27.7929
ltibia 40.2944
lfoot -15.4173 18.0735
ltoes -18.7243
491
root 5.93808 16.9668 21.3865 200.457 -70.2393 -206.924
lowerback 12.1266 5.12239 -23.1955
upperback 9.77942 3.00594 -9.65789
thorax 3.39748 -0.10346 1.76719
lowerneck -1.25164 4.85639 -1.03155
upperneck -0.629749 6.07724 20.2842
head -0.646382 2.71487 6.27102
rclavicle 5.24792e-014 1.49486e-013
rhumerus -63.3437 15.4125 -123.223
rradius 62.9243
rwrist 34.5729
rhand -6.61826 16.3997
rfingers 7.12502
rthumb 19.2379 -12.6688
lclavicle 5.24792e-014 1.49486e-013
lhumerus -77.4505 -34.0239 133.859
lradius 65.1561
lwrist 15.2226
lhand -6.05716 -5.34957
lfingers 7.12502
lthumb 19.7774 23.6642
rfemur -78.6579 -7.30569 4.69591
rtibia 19.2668
rfoot -22.9969 -15.3346
rtoes -25.0056
lfemur -5.93568 13.3533 -28.628
ltibia 40.753
lfoot -13.9836 19.2162
ltoes -17.4312
492
root 5.90731 17.0618 21.3223 202.215 -70.0901 -208.512
lowerback 12.4313 5.12721 -23.6536
upperback 9.82304 2.84143 -9.72441
thorax 3.31617 -0.211853 1.9227
lowerneck -1.30252 4.91036 -0.912095
upperneck -0.803896 6.18185 19.9916
head -0.686224 2.76286 6.15627
rclavicle -1.90833e-014 -1.27222e-014
rhumerus -63.4289 15.3658 -122.986
rradius 63.0723
rwrist 35.3483
rhand -6.61977 16.8573
rfingers 7.12502
rthumb 19.2365 -12.2113
lclavicle -1.90833e-014 -1.27222e-014
lhumerus -77.4504 -34.1057 133.975
lradius 65.2301
lwrist 15.1167
lhand -6.08962 -5.39447
lfingers 7.12502
lthumb 19.7462 23.6226
rfemur -80.0762 -8.01753 4.28134
rtibia 17.823
rfoot -22.2927 -15.1202
rtoes -25.2788
lfemur -6.88458 14.1492 -29.6707
ltibia 41.5529
lfoot -12.7712 19.8763
ltoes -16.2896
493
root 5.87463 17.1431 21.2559 204.305 -69.8274 -210.421
lowerback 12.7138 5.13955 -24.2461
upperback 9.86374 2.66795 -9.81733
thorax 3.2499 -0.334146 2.11495
lowerneck -1.3461 4.97116 -0.794711
upperneck -1.03245 6.30585 19.6524
head -0.743448 2.81768 6.02649
rclavicle -3.65764e-014 -8.90555e-014
rhumerus -63.5336 15.3794 -122.758
rradius 63.2455
rwrist 36.2857
rhand -6.60682 17.3658
rfingers 7.12502
rthumb 19.2489 -11.7016
lclavicle -3.65764e-014 -8.90555e-014
lhumerus -77.4541 -34.1441 134.117
lradius 65.2759
lwrist 14.9801
lhand -6.14375 -5.47179
lfingers 7.12502
lthumb 19.6942 23.5506
rfemur -81.5748 -8.71946 3.94483
rtibia 16.4566
rfoot -21.5599 -14.8296
rtoes -25.5203
lfemur -8.02342 15.137 -30.9598
ltibia 42.6015
lfoot -11.8205 20.0231
ltoes -15.4404
494
root 5.83898 17.2108 21.1873 206.556 -69.4384 -212.499
lowerback 12.9689 5.17058 -24.9384
upperback 9.90078 2.50532 -9.92988
thorax 3.19691 -0.45852 2.33107
lowerneck -1.34673 5.03524 -0.672925
upperneck -1.32342 6.44631 19.2753
head -0.826176 2.87522 5.88243
rclavicle 4.29375e-014 3.18055e-015
rhumerus -63.6535 15.4322 -122.548
rradius 63.4343
rwrist 37.2735
rhand -6.57179 17.6324
rfingers 7.12502
rthumb 19.2826 -11.4316
lclavicle 4.29375e-014 3.18055e-015
lhumerus -77.4863 -34.1515 134.312
lradius 65.2799
lwrist 14.8281
lhand -6.22826 -5.5836
lfingers 7.12502
lthumb 19.6129 23.4471
rfemur -83.1211 -9.36136 3.6837
rtibia 15.1762
rfoot -20.8135 -14.4494
rtoes -25.7344
lfemur -9.2724 16.2439 -32.478
ltibia 43.7721
lfoot -11.0863 19.7027
ltoes -15.1456
495
root 5.79964 17.2655 21.1171 208.845 -68.928 -214.662
lowerback 13.2089 5.22682 -25.7102
upperback 9.94215 2.36012 -10.0583
thorax 3.15825 -0.58184 2.56244
lowerneck -1.27844 5.10564 -0.550239
upperneck -1.67282 6.60696 18.8812
head -0.938767 2.9359 5.73045
rclavicle 1.11319e-014 3.02153e-013
rhumerus -63.7918 15.5311 -122.388
rradius 63.6272
rwrist 38.1576
rhand -6.50484 17.6663
rfingers 7.12502
rthumb 19.347 -11.3912
lclavicle 1.11319e-014 3.02153e-013
lhumerus -77.535 -34.1361 134.56
lradius 65.2254
lwrist 14.6769
lhand -6.34443 -5.72155
lfingers 7.12502
lthumb 19.5012 23.3205
rfemur -84.6696 -9.92308 3.48458
rtibia 14.0113
rfoot -20.0722 -13.9491
rtoes -25.9656
lfemur -10.5216 17.375 -34.2076
ltibia 44.9148
lfoot -10.5839 19.0023
ltoes -15.351
